<svg width="25" height="25" viewBox="0 0 25 25" fill="none" xmlns="http://www.w3.org/2000/svg">
<g clip-path="url(#clip0_118_27)">
<mask id="mask0_118_27" style="mask-type:luminance" maskUnits="userSpaceOnUse" x="3" y="3" width="19" height="19">
<path d="M22 3H3V22H22V3Z" fill="white"/>
</mask>
<g mask="url(#mask0_118_27)">
<path d="M6.48086 7.25273C6.30645 7.29355 6.41777 7.28613 6.27305 7.30469C5.65332 7.43828 6.11348 7.55703 6.48086 7.25273ZM17.3799 7.50137C17.4244 7.47168 17.5803 7.31953 17.0941 7.17109C17.1238 7.32324 16.9939 7.3084 16.9939 7.39375C17.3539 7.72031 17.5023 8.28809 17.9625 8.40684C18.0516 7.99863 17.5543 7.79824 17.3799 7.50137ZM6.15059 7.13398C6.20625 7.46426 6.45488 6.78516 6.45859 6.54395C6.36211 6.59961 6.26563 6.65527 6.16543 6.6998C6.39922 6.81855 6.19512 6.94473 5.94277 7.13398C5.43066 7.77227 6.42148 6.63672 6.15059 7.13398ZM12.5 3C7.25273 3 3 7.25273 3 12.5C3 17.7436 7.25273 22 12.5 22C17.7473 22 22 17.7436 22 12.5C22 7.25273 17.7473 3 12.5 3ZM12.7523 6.18398L12.7969 6.19883C12.6187 6.42891 13.7246 7.10059 12.9305 7.15625C12.1883 7.36777 13.2422 6.96328 12.667 7.03379C12.9713 6.61074 12.4258 6.60332 12.7523 6.18398ZM8.24727 6.79258C7.98008 6.56992 7.14141 7.09688 7.43457 6.9707C8.16191 6.68496 7.48281 7.00039 7.65352 7.3418C7.49766 7.66465 7.60156 7.02266 7.21562 7.40488C6.9373 7.46797 6.25449 8.09883 6.33984 7.90586C6.31758 8.20645 5.52715 8.5627 5.41953 9.06367C5.15977 9.75762 5.35645 9.0377 5.3082 8.7668C4.93711 8.29551 4.26172 9.56465 4.46211 10.0656C4.7998 9.47187 4.77383 10.0025 4.52891 10.266C4.77754 10.7225 4.30254 11.3162 4.77383 11.6539C4.98164 11.7021 5.39727 10.9563 5.21543 11.7318C5.3416 11.0602 5.56426 11.8914 5.92422 11.7059C5.94648 12.0584 6.16543 11.8951 6.21367 12.3219C6.81484 12.2773 7.36406 13.2941 6.64785 13.4871C6.75547 13.4574 6.96699 13.6467 7.21191 13.502C7.62754 13.8322 8.72227 13.873 8.75195 14.6895C7.99863 15.0494 8.56641 16.0365 7.91328 16.3891C7.16367 16.2777 7.65723 17.3131 7.3418 17.1943C7.46797 17.9402 6.58477 17.0979 6.92617 17.5098C7.55332 17.8957 6.65156 17.8178 6.93359 18.0998C6.61816 18.033 7.13027 18.6861 7.21562 18.9273C7.66836 19.6621 6.82598 18.7641 6.57734 18.5191C6.33984 18.0441 5.77949 17.135 5.62363 16.3891C5.53457 15.3055 4.6959 14.5781 4.50293 13.5205C4.30996 12.9305 5.03359 11.9842 4.64395 11.6539C4.30625 11.3904 4.44355 10.4887 4.24316 10.0137C4.74414 7.84277 6.33613 6.01328 8.24727 4.92969C8.05059 5.07441 9.37168 4.55488 9.21953 4.68105C9.17871 4.77383 9.99141 4.32852 10.4813 4.26172C10.4293 4.26914 9.2084 4.70703 9.54609 4.64766C9.02285 4.90371 9.49414 4.75898 9.75391 4.6291C9.23438 5.01133 8.83359 4.90371 8.24355 5.24141C7.6498 5.39727 7.77227 6.01328 7.34922 6.32129C7.59785 6.36582 8.22129 5.6793 8.58496 5.43809C9.41992 5.03359 8.16191 6.17285 8.95605 5.68301C8.68887 5.93164 8.74453 6.32871 8.58125 6.44004C8.49961 6.41777 8.9041 6.63301 8.24727 6.79258ZM9.54609 5.08555C9.46074 5.20059 9.34199 5.44922 9.27148 5.29707C9.175 5.34531 9.13789 5.55313 8.95605 5.38613C9.06367 5.3082 9.175 5.12266 8.96348 5.2377C9.05996 5.13379 9.9209 4.84062 9.87266 4.7293C10.0248 4.63281 10.01 4.58457 9.83555 4.64395C9.74648 4.61426 10.0471 4.36191 10.4479 4.32852C10.5035 4.32852 10.5258 4.36563 10.4256 4.35449C9.8207 4.54004 10.0805 4.48809 10.4887 4.35449C10.3328 4.44355 10.2252 4.46953 10.1992 4.51035C10.6074 4.36191 10.177 4.61797 10.2697 4.59941C10.1547 4.65879 10.2883 4.67734 10.0656 4.7627C10.1064 4.7293 9.70195 5.00391 9.94316 4.92227C9.70938 5.14492 9.60547 5.14863 9.54609 5.08555ZM9.90234 5.61621C9.90977 5.25996 10.4219 5.03359 10.3588 5.01504C10.9896 4.71816 10.1398 5.02617 10.6371 4.75898C10.8227 4.74043 11.216 4.14668 11.7615 4.10957C12.3627 3.92773 12.0844 4.1207 12.5297 3.95L12.4406 4.02422C12.3627 4.03535 12.4592 4.17266 12.1771 4.38047C12.1475 4.70332 11.6391 4.55488 11.8914 4.9C11.7281 4.66621 11.4832 4.89258 11.7912 4.91484C11.4609 5.16719 10.6928 5.21172 10.3254 5.63105C10.0879 5.97246 9.86895 5.86484 9.90234 5.61621ZM12.5408 6.80371C12.2885 7.4123 12.0436 6.71465 12.4889 6.60332C12.6002 6.6627 12.6447 6.68125 12.5408 6.80371ZM11.5908 5.58652C11.5166 5.31191 11.576 5.45664 12.0176 5.32676C12.3219 5.5457 11.7467 5.69043 11.5908 5.58652ZM18.5006 16.4781C18.1518 15.877 18.9236 15.3203 19.1834 14.8156C19.15 15.4057 19.0758 15.9883 18.5006 16.4781ZM19.8143 9.60918C19.4357 9.63887 19.0943 9.72793 18.7529 9.5127C17.9662 8.65176 18.8977 10.485 19.1574 9.73535C20.0926 10.0916 19.1426 11.6279 18.5525 11.4684C18.2223 10.7559 17.8141 9.97285 17.0941 9.62402C17.6471 10.2363 17.9217 10.9896 18.5154 11.5426C18.5563 12.3145 19.3393 11.2605 19.291 11.858C19.3652 12.8859 18.1295 13.502 18.3447 14.5336C18.8049 15.4725 17.4578 15.6432 17.61 16.4855C17.0682 17.0904 16.4893 17.9068 15.517 17.777C15.517 17.2648 15.2572 16.8307 15.1979 16.3037C14.6709 15.6357 15.7545 14.9195 15.0828 14.2219C14.3072 14.0475 15.2424 12.9787 14.4445 13.0789C13.9658 12.6002 13.2645 13.0641 12.5779 13.0678C11.717 13.1494 10.8301 12.0102 11.2123 11.2049C10.908 10.3662 12.1771 10.1213 12.2105 9.38281C12.8191 8.87441 13.6838 8.9375 14.5076 8.81875C14.4482 9.40879 15.0717 9.4125 15.543 9.60918C15.8064 8.9709 16.6266 9.71309 17.1869 9.30859C17.3799 8.36602 16.6414 8.93379 16.2184 8.6332C15.7063 7.88359 17.3131 8.24727 17.1461 7.85391C16.5227 7.8502 16.8752 7.08574 16.4336 7.5125C16.8307 7.58301 16.3631 7.89473 16.3742 7.53848C15.773 7.36406 16.352 8.22129 16.0477 8.30293C15.5838 8.10996 15.8027 8.52187 15.851 8.58496C15.6506 9.01914 15.4057 7.94668 14.8379 7.97637C14.2738 7.46055 14.6152 8.21016 15.1051 8.33262C15.0012 8.3623 15.1645 8.78906 15.0346 8.60723C14.6301 8.05059 13.8619 7.67949 13.4055 8.3623C13.3572 9.00059 12.0584 9.18242 12.2662 8.43652C11.9619 7.66465 13.2088 8.41426 13.0938 7.79824C12.2922 7.26758 13.3127 7.43828 13.5836 6.94102C14.1996 6.95957 13.6096 6.43633 13.899 6.28418C13.8693 6.85195 14.3703 6.74434 14.7674 6.63672C14.6709 6.31016 15.0049 6.32129 14.8008 6.05039C15.7211 5.68301 14.0994 6.22109 14.426 5.41582C14.0289 5.14121 14.259 6.0207 14.426 6.11348C14.4371 6.38438 14.207 6.71836 13.8916 6.15059C13.4314 6.45117 13.4797 5.84629 13.45 5.90938C13.398 5.67559 13.7988 5.66445 13.8025 5.25625C13.7691 4.99648 13.7766 4.85918 13.9621 4.84434C13.977 4.88145 14.7229 4.89258 14.9863 5.20059C14.2664 5.05586 14.8787 5.31934 15.2016 5.46777C14.8564 5.19687 15.3389 5.46777 15.0568 5.15977C15.1682 5.18203 14.7488 4.73672 15.1793 5.12637C14.9455 4.84805 15.6357 4.92969 15.2275 4.72188C15.825 4.88887 15.4725 4.73672 15.1199 4.58457C14.1477 4.00566 16.8381 5.36758 15.7396 4.7627C16.441 4.91484 14.2404 4.2209 15.2424 4.5252C14.8602 4.3582 15.2312 4.45098 15.5764 4.55859C14.9566 4.36563 14.0289 4.00566 14.066 3.99082C14.2813 4.00566 14.4928 4.05391 14.6969 4.11328C15.3314 4.30254 14.515 4.06875 14.6895 4.07246C16.8715 4.63281 18.7826 6.09492 19.9441 8.00605C20.215 8.2918 20.9535 10.1807 20.5676 9.34199C20.742 10.01 20.768 10.7299 20.8607 11.4127C20.6678 11.1975 20.4525 10.4033 20.267 9.96172C20.1891 10.1324 20.1 9.72051 19.8143 9.60918Z" fill="white"/>
</g>
</g>
<defs>
<clipPath id="clip0_118_27">
<rect width="19" height="19" fill="white" transform="translate(3 3)"/>
</clipPath>
</defs>
</svg>
