<svg width="242" height="140" viewBox="0 0 242 140" fill="none" xmlns="http://www.w3.org/2000/svg">
<path d="M1.26172 67.7299C1.26172 56.8775 9.97851 48.1216 20.7824 48.1216C31.5864 48.1216 40.3032 56.8775 40.3032 67.7299C40.3032 99.7938 61.6654 126.801 90.7623 135.311C84.6237 137.161 77.9941 138.147 71.2416 138.147C32.5684 138.024 1.26172 106.453 1.26172 67.7299Z" fill="#25C7AA"/>
<path d="M22.5011 118.169C15.012 110.646 15.012 98.4372 22.5011 90.9145C29.9902 83.3918 42.1446 83.3918 49.6336 90.9145C71.8554 113.236 105.495 117.182 131.768 102.63C128.699 108.18 124.77 113.483 120.105 118.169C93.0949 145.3 49.3881 145.3 22.5011 118.169Z" fill="#5A5EFC" fill-opacity="0.4"/>
<path d="M71.1189 138.147C60.5605 138.147 51.8438 129.514 51.8438 118.785C51.8438 108.179 60.4378 99.4236 71.1189 99.4236C102.548 99.4236 129.067 78.3354 137.416 49.3545C139.134 55.5207 140.117 61.9335 140.117 68.7162C140.117 107.193 109.301 138.147 71.1189 138.147Z" fill="#25C7AA"/>
<path d="M240.912 67.7299C240.912 56.8775 232.196 48.1216 221.392 48.1216C210.588 48.1216 201.871 56.8775 201.871 67.7299C201.871 99.7938 180.508 126.801 151.412 135.311C157.55 137.161 164.179 138.147 170.933 138.147C209.605 138.024 240.912 106.453 240.912 67.7299Z" fill="#25C7AA"/>
<path d="M219.795 118.169C227.284 110.646 227.284 98.4372 219.795 90.9145C212.305 83.3918 200.151 83.3918 192.662 90.9145C170.441 113.236 136.801 117.182 110.528 102.63C113.598 108.18 117.526 113.483 122.192 118.169C149.079 145.3 192.785 145.3 219.795 118.169Z" fill="#5A5EFC" fill-opacity="0.4"/>
<path d="M171.054 138.147C181.613 138.147 190.33 129.514 190.33 118.785C190.33 108.179 181.735 99.4236 171.054 99.4236C139.625 99.4236 113.107 78.3354 104.758 49.3545C103.039 55.5207 102.057 61.9335 102.057 68.7162C102.057 107.193 132.996 138.147 171.054 138.147Z" fill="#25C7AA"/>
<path d="M122.56 118.909C130.049 126.432 142.326 126.432 149.815 118.909C157.305 111.386 157.305 99.0539 149.815 91.5313C127.471 69.0866 123.665 35.2961 138.152 8.90503C132.627 11.9881 127.348 15.9344 122.56 20.6206C95.5503 47.7517 95.5503 91.7778 122.56 118.909Z" fill="#5A5EFC" fill-opacity="0.4"/>
<path d="M121.087 117.429C120.596 117.922 120.104 118.415 119.613 118.909C119.122 119.402 118.631 119.895 118.017 120.265C117.526 119.895 116.912 119.402 116.421 118.909C106.845 109.289 100.584 97.5738 97.8828 85.1183C99.6016 82.8983 101.198 80.5553 102.671 78.0889C104.512 92.5176 110.651 106.33 121.087 117.429Z" fill="#5A5EFC" fill-opacity="0.4"/>
<path d="M101.812 69.7029C101.812 80.432 110.406 89.0646 121.087 89.0646C131.768 89.0646 140.362 80.432 140.362 69.7029C140.362 38.009 161.479 11.3714 190.33 2.98545C184.192 1.25893 177.808 0.272337 171.056 0.272337C132.75 0.149015 101.812 31.3496 101.812 69.7029Z" fill="#25C7AA"/>
<path d="M149.57 48.2449C160.005 37.7625 173.019 31.3497 186.525 28.8832C187.26 25.1835 188.98 21.6072 191.927 18.6474C197.574 12.9746 205.676 11.618 212.552 14.2078C185.42 -6.14041 146.869 -3.92058 122.315 20.8672C114.825 28.39 114.825 40.7223 122.315 48.2449C129.926 55.7677 142.081 55.7677 149.57 48.2449Z" fill="#5A5EFC" fill-opacity="0.4"/>
<path d="M170.686 38.8723C185.42 38.8723 199.169 43.5586 210.465 51.4513C213.535 49.3548 217.34 47.9982 221.514 47.9982C229.371 47.9982 236.246 52.6844 239.316 59.4672C234.405 25.8001 205.676 0.0256348 170.809 0.0256348C160.127 0.0256348 151.534 8.65824 151.534 19.3873C151.411 30.2397 160.127 38.8723 170.686 38.8723Z" fill="#25C7AA"/>
<path d="M191.926 46.395C196.346 50.8346 200.151 55.7675 203.098 61.0703C205.8 53.5477 212.92 48.1214 221.392 48.1214C229.616 48.1214 236.615 53.1777 239.438 60.3304C237.72 45.1617 231.091 30.3631 219.427 18.6473C211.815 11.0014 199.416 11.0014 191.804 18.6473C184.315 26.4167 184.315 38.7489 191.926 46.395Z" fill="#5A5EFC" fill-opacity="0.4"/>
<path d="M119.614 118.909C112.125 126.432 99.8475 126.432 92.3584 118.909C84.8695 111.386 84.8695 99.0539 92.3584 91.5313C114.703 69.0866 118.509 35.2961 104.022 8.90503C109.546 11.9881 114.826 15.9344 119.614 20.6206C146.624 47.7517 146.624 91.7778 119.614 118.909Z" fill="#5A5EFC" fill-opacity="0.4"/>
<path opacity="0.1" d="M121.087 117.429C120.596 117.922 120.104 118.415 119.613 118.909C119.122 119.402 118.631 119.895 118.017 120.265C117.526 119.895 116.912 119.402 116.421 118.909C106.845 109.289 100.584 97.5738 97.8828 85.1183C99.6016 82.8983 101.198 80.5553 102.671 78.0889C104.512 92.5176 110.651 106.33 121.087 117.429Z" fill="black"/>
<path d="M140.362 69.7029C140.362 80.432 131.768 89.0646 121.087 89.0646C110.406 89.0646 101.812 80.432 101.812 69.7029C101.812 38.009 80.6951 11.3714 51.8438 2.98545C57.9823 1.25893 64.3665 0.272337 71.1189 0.272337C109.424 0.149015 140.362 31.3496 140.362 69.7029Z" fill="#25C7AA"/>
<path d="M92.604 48.2449C82.1684 37.7625 69.1545 31.3497 55.6496 28.8832C54.913 25.1835 53.1941 21.6072 50.2476 18.6474C44.6001 12.9746 36.4973 11.618 29.6221 14.2078C56.7546 -6.14041 95.3049 -3.92058 119.859 20.8672C127.348 28.39 127.348 40.7223 119.859 48.2449C112.37 55.7677 100.093 55.7677 92.604 48.2449Z" fill="#5A5EFC" fill-opacity="0.4"/>
<path d="M71.4873 38.8723C56.7548 38.8723 43.0042 43.5586 31.7092 51.4513C28.64 49.3548 24.834 47.9982 20.6598 47.9982C12.8024 47.9982 5.9272 52.6844 2.85791 59.4672C7.76879 25.8001 36.4973 0.0256348 71.3646 0.0256348C82.0457 0.0256348 90.6397 8.65824 90.6397 19.3873C90.7625 30.2397 82.1684 38.8723 71.4873 38.8723Z" fill="#25C7AA"/>
<path d="M50.2475 46.395C45.8278 50.8346 42.0219 55.7675 39.0754 61.0703C36.3743 53.5477 29.2535 48.1214 20.7824 48.1214C12.5566 48.1214 5.55862 53.1777 2.73486 60.3304C4.45367 45.1617 11.0833 30.3631 22.7467 18.6473C30.3586 11.0014 42.7584 11.0014 50.3702 18.6473C57.8593 26.4167 57.8593 38.7489 50.2475 46.395Z" fill="#5A5EFC" fill-opacity="0.4"/>
<path opacity="0.25" d="M140.362 68.7165C140.485 63.1669 141.222 57.8641 142.449 52.6846C141.222 53.1778 139.871 53.4245 138.521 53.6711C139.626 58.604 140.239 63.6602 140.362 68.7165Z" fill="black"/>
<path opacity="0.1" d="M146.869 50.5879C143.799 52.4377 142.572 52.8077 142.572 52.8077C141.344 53.3009 139.994 53.5477 138.643 53.7943C135.819 41.7088 129.681 30.7329 121.455 21.977C121.823 21.607 122.069 21.2371 122.437 20.8672C124.893 18.4007 127.348 16.3042 130.049 14.3311C137.047 23.7036 144.045 39.6121 146.869 50.5879Z" fill="black"/>
</svg>
